<svg xmlns="http://www.w3.org/2000/svg" xmlns:xlink="http://www.w3.org/1999/xlink" version="1.1" xml:space="preserve" viewBox="0 0 1080 1080">
<desc>Created with Fabric.js 5.2.4</desc>
<defs>
</defs>
<g transform="matrix(1 0 0 1 540 540)" id="11acecb0-6ce1-4dbd-9af8-e1a629abdfe9">
<rect style="stroke: none; stroke-width: 1; stroke-dasharray: none; stroke-linecap: butt; stroke-dashoffset: 0; stroke-linejoin: miter; stroke-miterlimit: 4; fill: rgb(255,255,255); fill-rule: nonzero; opacity: 1; visibility: hidden;" vector-effect="non-scaling-stroke" x="-540" y="-540" rx="0" ry="0" width="1080" height="1080"/>
</g>
<g transform="matrix(1 0 0 1 540 540)" id="058c5b45-a7a4-414c-bd18-517770755e04">
</g>
<g transform="matrix(4.15 0 0 4.15 422.2 543.79)">
<path style="stroke: none; stroke-width: 1; stroke-dasharray: none; stroke-linecap: butt; stroke-dashoffset: 0; stroke-linejoin: miter; stroke-miterlimit: 4; fill: rgb(0,0,0); fill-rule: nonzero; opacity: 1;" vector-effect="non-scaling-stroke" transform=" translate(-257.38, -329.49)" d="M 223.616089 280.878998 C 219.474258 280.24704 218.281281 281.770905 218.296494 285.534821 C 218.415054 314.858704 218.497452 344.184662 218.227432 373.506622 C 218.168686 379.888275 222.410889 378.562408 225.582123 378.444122 C 245.238525 377.711151 264.89679 378.362885 284.551147 378.107178 C 286.383331 378.083344 288.287292 377.808319 290.035706 378.19809 C 295.342377 379.381104 296.079285 376.792755 296.039886 372.247437 C 295.852081 350.588959 295.935028 328.92804 295.946167 307.267975 C 295.950073 299.65741 295.981995 299.657471 303.247742 299.646179 C 317.199402 299.624481 317.20285 299.624451 317.201721 313.551056 C 317.199554 339.709747 317.201538 365.868439 317.182587 392.02713 C 317.17749 399.07251 317.124817 399.146545 310.327271 399.150604 C 275.0047 399.171661 239.682159 399.17334 204.359604 399.157562 C 197.788071 399.154633 197.688065 399.03476 197.685944 392.393646 C 197.672562 350.406433 197.753693 308.418915 197.567657 266.432495 C 197.545334 261.391968 199.022308 259.658813 204.072311 259.826569 C 213.559006 260.141632 223.06517 260.025909 232.559784 259.873657 C 236.605133 259.808807 238.397888 261.330444 238.163559 265.449158 C 237.974594 268.770477 237.948547 272.124359 238.181046 275.440582 C 238.478836 279.688202 236.485519 281.112091 232.537552 280.899048 C 229.71373 280.746643 226.87468 280.876007 223.616089 280.878998 z" stroke-linecap="round"/>
</g>
<g transform="matrix(4.15 0 0 4.15 667.8 544.07)">
<path style="stroke: none; stroke-width: 1; stroke-dasharray: none; stroke-linecap: butt; stroke-dashoffset: 0; stroke-linejoin: miter; stroke-miterlimit: 4; fill: rgb(0,0,0); fill-rule: nonzero; opacity: 1;" vector-effect="non-scaling-stroke" transform=" translate(-316.5, -329.56)" d="M 376.260254 316.000061 C 376.271912 341.817688 376.291473 367.135345 376.288391 392.452972 C 376.287598 399.029419 376.19281 399.126434 369.557831 399.145752 C 360.230377 399.172974 350.899811 399.001709 341.576599 399.199707 C 337.374908 399.288879 335.346161 398.025574 335.689545 393.516205 C 335.966949 389.873169 335.84848 386.187531 335.704407 382.528717 C 335.586731 379.540405 336.943878 378.21994 339.803955 378.198547 C 343.800812 378.16864 347.80545 377.991425 351.792053 378.1828 C 354.642303 378.31958 355.643738 377.280029 355.627197 374.474304 C 355.517334 355.820496 355.682434 337.1633 355.388702 318.513031 C 355.22876 308.355591 354.879974 298.206757 355.423157 288.056519 C 355.763245 281.701721 354.436249 280.410004 348.120331 280.557495 C 327.142914 281.047424 306.161865 281.233307 285.186584 280.490875 C 277.503906 280.218964 277.390411 280.213379 277.385529 287.913818 C 277.371552 309.900177 277.22583 331.887787 277.438965 353.871918 C 277.484161 358.535187 275.892334 359.910034 271.449768 359.984344 C 256.715424 360.230743 256.7099 360.35556 256.707733 345.537109 C 256.703827 319.220062 256.703156 292.903046 256.717133 266.585999 C 256.720612 260.055756 256.827118 259.928864 263.476959 259.926025 C 298.788422 259.911041 334.099884 259.912415 369.411346 259.934875 C 376.212158 259.939209 376.276123 260.037079 376.2789 267.030762 C 376.285278 283.187195 376.267609 299.343597 376.260254 316.000061 z" stroke-linecap="round"/>
</g>
</svg>