<svg xmlns="http://www.w3.org/2000/svg" xmlns:xlink="http://www.w3.org/1999/xlink" version="1.1" id="Layer_1" x="0px" y="0px" enable-background="new 0 0 1024 672" xml:space="preserve" viewBox="197.57 259.82 648.65 155.83">
<path fill="#000000" opacity="1.000000" stroke="none" d=" M671.592529,381.831055   C671.589966,366.536011 671.589966,351.723175 671.589966,336.910370   C671.320068,336.840668 671.050232,336.770996 670.780334,336.701294   C666.517273,349.964752 662.254211,363.228180 657.991150,376.491638   C657.428955,376.570099 656.866760,376.648560 656.304626,376.726990   C652.010559,363.352112 647.716492,349.977203 643.088562,335.562500   C643.088562,351.193665 643.109131,365.718353 643.079285,380.242950   C643.065918,386.753204 642.794739,386.999878 636.347656,387.059052   C632.350830,387.095734 628.347839,386.934601 624.357849,387.103790   C620.516296,387.266663 618.897217,385.683411 619.027649,381.815491   C619.195862,376.824646 619.076050,371.823944 619.073608,366.827484   C619.059326,337.514893 619.030884,308.202301 619.034607,278.889709   C619.035889,268.969299 619.072388,268.968994 629.222961,268.946289   C631.221558,268.941803 633.220093,268.938416 635.218689,268.939026   C644.650757,268.941864 644.655090,268.941284 647.070251,278.209290   C649.754883,288.511597 652.420044,298.819061 655.121582,309.116943   C655.528259,310.667236 656.086548,312.177734 656.941956,314.857025   C660.491699,306.575043 661.530823,298.855377 663.614258,291.454529   C665.281738,285.531738 666.812622,279.562836 668.151611,273.558105   C668.902405,270.191010 670.680847,268.846985 674.070679,268.931091   C679.396545,269.063263 684.734192,269.088318 690.056335,268.884583   C693.967590,268.734863 695.315857,270.332123 695.281799,274.185913   C695.140320,290.173462 695.204773,306.162811 695.203308,322.151520   C695.201477,341.804291 695.087891,361.458405 695.302063,381.108887   C695.352783,385.763092 693.711975,387.392548 689.220642,387.128235   C684.904907,386.874298 680.561401,386.975464 676.233765,387.077148   C672.854614,387.156555 671.234985,385.758636 671.592529,381.831055  z"/>
<path fill="#000000" opacity="1.000000" stroke="none" d=" M223.616089,280.878998   C219.474258,280.247040 218.281281,281.770905 218.296494,285.534821   C218.415054,314.858704 218.497452,344.184662 218.227432,373.506622   C218.168686,379.888275 222.410889,378.562408 225.582123,378.444122   C245.238525,377.711151 264.896790,378.362885 284.551147,378.107178   C286.383331,378.083344 288.287292,377.808319 290.035706,378.198090   C295.342377,379.381104 296.079285,376.792755 296.039886,372.247437   C295.852081,350.588959 295.935028,328.928040 295.946167,307.267975   C295.950073,299.657410 295.981995,299.657471 303.247742,299.646179   C317.199402,299.624481 317.202850,299.624451 317.201721,313.551056   C317.199554,339.709747 317.201538,365.868439 317.182587,392.027130   C317.177490,399.072510 317.124817,399.146545 310.327271,399.150604   C275.004700,399.171661 239.682159,399.173340 204.359604,399.157562   C197.788071,399.154633 197.688065,399.034760 197.685944,392.393646   C197.672562,350.406433 197.753693,308.418915 197.567657,266.432495   C197.545334,261.391968 199.022308,259.658813 204.072311,259.826569   C213.559006,260.141632 223.065170,260.025909 232.559784,259.873657   C236.605133,259.808807 238.397888,261.330444 238.163559,265.449158   C237.974594,268.770477 237.948547,272.124359 238.181046,275.440582   C238.478836,279.688202 236.485519,281.112091 232.537552,280.899048   C229.713730,280.746643 226.874680,280.876007 223.616089,280.878998  z"/>
<path fill="#000000" opacity="1.000000" stroke="none" d=" M376.260254,316.000061   C376.271912,341.817688 376.291473,367.135345 376.288391,392.452972   C376.287598,399.029419 376.192810,399.126434 369.557831,399.145752   C360.230377,399.172974 350.899811,399.001709 341.576599,399.199707   C337.374908,399.288879 335.346161,398.025574 335.689545,393.516205   C335.966949,389.873169 335.848480,386.187531 335.704407,382.528717   C335.586731,379.540405 336.943878,378.219940 339.803955,378.198547   C343.800812,378.168640 347.805450,377.991425 351.792053,378.182800   C354.642303,378.319580 355.643738,377.280029 355.627197,374.474304   C355.517334,355.820496 355.682434,337.163300 355.388702,318.513031   C355.228760,308.355591 354.879974,298.206757 355.423157,288.056519   C355.763245,281.701721 354.436249,280.410004 348.120331,280.557495   C327.142914,281.047424 306.161865,281.233307 285.186584,280.490875   C277.503906,280.218964 277.390411,280.213379 277.385529,287.913818   C277.371552,309.900177 277.225830,331.887787 277.438965,353.871918   C277.484161,358.535187 275.892334,359.910034 271.449768,359.984344   C256.715424,360.230743 256.709900,360.355560 256.707733,345.537109   C256.703827,319.220062 256.703156,292.903046 256.717133,266.585999   C256.720612,260.055756 256.827118,259.928864 263.476959,259.926025   C298.788422,259.911041 334.099884,259.912415 369.411346,259.934875   C376.212158,259.939209 376.276123,260.037079 376.278900,267.030762   C376.285278,283.187195 376.267609,299.343597 376.260254,316.000061  z"/>
<path fill="#000000" opacity="1.000000" stroke="none" d=" M548.847717,291.052155   C548.878540,273.313721 553.199341,268.967316 570.382935,268.933319   C578.045776,268.918152 585.712158,268.790222 593.370728,268.972168   C605.210449,269.253387 610.312195,274.489960 610.331116,286.303955   C610.375061,313.790314 610.367004,341.276886 610.318848,368.763245   C610.298096,380.622345 606.497009,385.291809 594.867310,386.597504   C584.772949,387.730804 574.550110,387.687866 564.455688,386.613373   C553.463318,385.443237 548.977295,380.118713 548.919556,369.004547   C548.814026,348.681793 548.902039,328.358093 548.900330,308.034790   C548.899902,302.537506 548.867188,297.040222 548.847717,291.052155  M580.772827,290.744110   C577.613159,291.262146 573.314697,289.766083 573.332825,295.511536   C573.402100,317.449371 573.389709,339.387634 573.339478,361.325562   C573.329041,365.887634 576.370178,365.738983 579.482971,365.660675   C582.405579,365.587158 585.803955,366.356415 585.796875,361.592377   C585.763733,339.322327 585.771118,317.052185 585.786011,294.782074   C585.787964,291.897156 584.573730,290.392334 580.772827,290.744110  z"/>
<path fill="#000000" opacity="1.000000" stroke="none" d=" M402.727173,274.366272   C401.935333,270.639191 402.987122,268.868805 406.667999,268.940918   C411.831451,269.042084 416.999847,269.020355 422.163727,268.923065   C425.555298,268.859131 426.854919,270.655121 427.245758,273.752747   C429.556152,292.064117 431.917603,310.369080 434.290588,328.672485   C434.566620,330.801788 435.019257,332.908173 435.553986,335.961243   C438.030365,330.832001 437.835785,326.039642 438.501221,321.517670   C440.776093,306.058533 442.801056,290.559967 444.687714,275.048004   C445.229187,270.595947 446.936859,268.529327 451.657684,268.864594   C456.299805,269.194275 460.984406,268.964203 465.649719,268.915985   C469.143433,268.879913 470.332214,270.248230 469.638275,273.875366   C465.607239,294.944916 461.724640,316.043030 457.834839,337.139404   C455.149292,351.704651 452.290771,366.245026 450.016754,380.875366   C449.211975,386.053070 446.946838,387.499664 442.130371,387.158539   C437.321411,386.817902 432.469910,387.007019 427.638702,387.077942   C424.591431,387.122650 423.272369,385.764465 422.719604,382.741302   C416.136353,346.740021 409.441376,310.759186 402.727173,274.366272  z"/>
<path fill="#000000" opacity="1.000000" stroke="none" d=" M844.324829,372.147095   C844.098206,373.564453 843.918457,374.546234 843.728455,375.526062   C841.173218,388.703949 844.059387,386.957581 829.409241,387.090881   C819.916931,387.177246 810.421692,386.994202 800.930481,387.128387   C797.264404,387.180237 795.949158,385.746277 795.956665,382.112762   C796.030334,346.305420 796.032043,310.497742 795.949829,274.690430   C795.940002,270.413727 797.578674,268.804474 801.882263,268.872589   C813.704102,269.059723 825.531738,269.013428 837.355286,268.889130   C841.142822,268.849304 843.171509,269.941528 843.553772,274.114746   C843.960876,278.559998 845.092285,282.946320 846.023438,287.333740   C846.700500,290.524078 845.645386,292.114136 842.280518,292.084473   C836.951538,292.037445 831.617432,292.193695 826.293884,292.015594   C822.758057,291.897308 821.100159,292.994629 821.252258,296.836823   C821.489136,302.823151 821.378479,308.826721 821.284485,314.820953   C821.241028,317.590424 822.376221,318.750305 825.145508,318.674591   C828.806458,318.574524 832.474792,318.752075 836.136047,318.658508   C839.000854,318.585297 840.489502,319.594055 840.400330,322.685303   C840.275513,327.012024 840.254578,331.348267 840.393677,335.673859   C840.491882,338.726654 839.044983,339.878540 836.211853,339.871277   C832.548096,339.861847 828.884033,339.931915 825.220520,339.903717   C822.549438,339.883179 821.251892,341.022827 821.294128,343.804718   C821.375000,349.132935 821.411621,354.465729 821.277405,359.791840   C821.200562,362.842224 822.525146,363.966034 825.453674,363.894562   C829.614685,363.792969 833.780273,363.876007 837.943909,363.882904   C845.872192,363.896027 846.008179,364.062531 844.324829,372.147095  z"/>
<path fill="#000000" opacity="1.000000" stroke="none" d=" M515.238525,290.405975   C516.429016,284.441650 517.665466,278.918427 518.531860,273.337799   C519.055847,269.962372 520.884399,268.909302 523.992004,268.950348   C528.818420,269.014191 533.647217,268.893768 538.474182,268.935608   C544.029053,268.983734 544.517273,269.598816 543.086365,275.127930   C537.213867,297.819336 531.629211,320.593292 525.255371,343.143768   C521.731689,355.610321 522.123230,368.159424 522.292419,380.765381   C522.356018,385.506592 520.878296,387.420013 516.035950,387.126831   C510.894073,386.815521 505.718536,386.994995 500.559113,387.065186   C497.651337,387.104736 496.191406,386.025269 496.521484,382.924011   C498.630341,363.109283 493.495972,344.339844 488.389221,325.522675   C483.815857,308.671021 479.614502,291.717957 475.308746,274.794403   C473.957031,269.481598 474.364746,268.999573 479.766571,268.930695   C484.260437,268.873444 488.776764,269.195312 493.244415,268.849182   C497.694000,268.504456 499.435883,270.439972 500.174164,274.584930   C502.417603,287.179840 504.920166,299.728607 507.324554,312.294830   C507.626953,313.875458 507.738403,315.536469 509.792419,317.500946   C511.654388,308.191833 513.391418,299.507385 515.238525,290.405975  z"/>
<path fill="#000000" opacity="1.000000" stroke="none" d=" M762.999634,387.111694   C755.166809,387.108795 747.833679,387.128754 740.500854,387.096466   C733.362244,387.065002 733.150085,386.836487 734.999207,380.116547   C742.420105,353.148407 749.878662,326.190643 757.336792,299.232758   C759.204651,292.481232 759.021851,292.205872 751.962097,292.128815   C747.962708,292.085175 743.960510,291.983154 739.963867,292.081329   C736.293884,292.171509 735.242065,290.381836 735.911682,287.068359   C736.899963,282.178284 737.899048,277.290161 738.842834,272.391418   C739.294495,270.047211 740.678589,268.969543 743.016052,268.969757   C757.514771,268.971130 772.013550,268.960938 786.512268,268.966888   C790.692932,268.968628 790.382141,271.417175 789.593567,274.390503   C783.875305,295.951019 778.211304,317.525970 772.558044,339.103638   C770.499268,346.961792 768.516357,354.839905 766.334167,363.351044   C771.717651,364.358917 776.667480,363.730347 781.555237,363.867126   C787.370728,364.029877 787.612000,364.288300 786.571350,369.858704   C785.777588,374.107849 784.895813,378.349213 784.339966,382.631287   C783.907837,385.959869 782.222046,387.169220 778.997864,387.098663   C773.834290,386.985687 768.665833,387.095856 762.999634,387.111694  z"/>
<path fill="#000000" opacity="1.000000" stroke="none" d=" M703.630737,353.999878   C703.632507,327.354797 703.745178,301.208862 703.537903,275.065460   C703.499084,270.169403 705.150696,268.527557 709.867188,268.868225   C714.008301,269.167419 718.205200,269.146881 722.347900,268.852051   C727.054382,268.517090 728.325439,270.566498 728.303345,275.012970   C728.156860,304.487823 728.216492,333.963715 728.211975,363.439270   C728.210999,369.600830 728.112793,375.765167 728.269958,381.922882   C728.359436,385.427002 727.227478,387.232361 723.443359,387.114990   C718.452332,386.960205 713.450256,386.975159 708.458130,387.110565   C704.761658,387.210815 703.521057,385.559357 703.581604,381.976410   C703.736267,372.819916 703.631836,363.659027 703.630737,353.999878  z"/>
<path fill="#000000" opacity="1.000000" stroke="none" d=" M610.569580,411.950531   C611.807251,412.213654 612.932800,412.362823 613.048462,413.585541   C613.174927,414.923553 612.070557,415.031891 611.079712,415.247986   C604.481812,416.686829 601.255859,413.579559 602.767212,407.063110   C603.763367,402.767639 607.382324,404.270721 610.081116,404.159698   C613.172302,404.032562 613.191406,406.262421 613.053589,408.609772   C612.918396,410.913422 611.455444,411.213348 609.685059,411.295044   C609.524658,411.302460 609.367188,411.371765 609.208313,411.412323   C609.569153,411.582367 609.929993,411.752411 610.569580,411.950531  z"/>
<path fill="#000000" opacity="1.000000" stroke="none" d=" M737.130127,404.960449   C737.666443,405.561188 738.100220,406.011627 738.069153,406.427277   C737.857788,409.254425 739.767151,413.008698 736.738281,414.651459   C733.561523,416.374390 732.316284,412.108185 729.735107,410.671753   C728.121155,411.442841 729.262451,414.231171 727.226807,414.785126   C725.022400,413.175476 723.574707,406.920685 725.457947,405.529053   C729.631531,402.445038 730.795898,407.667999 733.783142,408.959503   C735.162964,408.001892 733.314087,404.199280 737.130127,404.960449  z"/>
<path fill="#000000" opacity="1.000000" stroke="none" d=" M584.430542,411.548157   C582.585327,411.327118 581.009460,411.049103 580.315979,412.944092   C580.030823,413.723053 579.824463,414.574615 578.895630,414.848419   C577.726440,415.193146 576.776672,414.692474 576.611572,413.585663   C576.195374,410.795715 575.810974,407.866608 577.146667,405.291473   C577.743896,404.139923 579.185791,404.540466 579.993591,405.754639   C582.051025,408.847107 583.919128,408.641357 586.104797,405.712067   C587.570007,403.748260 589.247620,404.489960 589.620850,406.627563   C590.117065,409.469696 590.499023,412.493378 588.635376,414.809387   C585.634399,415.160034 586.134399,412.462982 584.430542,411.548157  z"/>
<path fill="#000000" opacity="1.000000" stroke="none" d=" M471.421204,414.076172   C469.741119,412.740173 468.905548,410.966309 467.031097,410.393127   C465.639832,411.538788 467.004364,413.833923 465.141449,414.705231   C462.934540,413.103271 461.569397,406.806976 463.487549,405.459106   C467.682220,402.511566 468.673431,408.250946 471.785034,408.849487   C473.521851,408.291229 471.824860,405.425079 474.654877,405.043915   C477.453613,407.363953 476.445435,410.758698 475.774139,413.686554   C475.284912,415.820465 473.275879,415.297485 471.421204,414.076172  z"/>
<path fill="#000000" opacity="1.000000" stroke="none" d=" M512.250427,406.333069   C515.628235,403.754883 518.961853,403.198578 522.284302,405.349060   C525.281250,407.288818 526.123718,410.133636 523.723083,412.991791   C520.926331,416.321564 517.054871,416.014282 513.685120,414.273865   C510.582703,412.671509 509.973175,409.750244 512.250427,406.333069  M518.322327,407.395416   C516.486877,407.388123 514.911072,407.899780 514.804993,410.018402   C514.734253,411.430573 516.055176,411.849213 517.159058,412.218109   C518.809326,412.769684 520.250244,412.201233 520.980835,410.748108   C521.925598,408.868958 520.439575,408.103912 518.322327,407.395416  z"/>
<path fill="#000000" opacity="1.000000" stroke="none" d=" M659.750549,412.559937   C659.773865,409.841553 659.302063,407.510468 660.154907,405.005646   C664.013916,403.447540 665.332947,407.617981 667.965210,408.705261   C669.572754,407.836914 668.018982,404.580811 670.915405,404.894318   C671.898743,405.000763 672.269348,405.894745 672.211182,406.742126   C672.025818,409.440979 673.513550,412.559540 671.024231,414.693665   C669.659729,415.863464 668.279175,414.370514 667.178284,413.357513   C666.108643,412.373322 665.065979,411.359833 663.922913,410.275208   C662.294983,415.330017 662.294983,415.330017 659.750549,412.559937  z"/>
<path fill="#000000" opacity="1.000000" stroke="none" d=" M689.523804,412.590973   C688.853271,414.302979 687.718445,415.809052 686.591431,414.357544   C684.768921,412.010284 685.555115,408.907684 685.928406,406.160522   C686.219421,404.019257 688.339050,404.153870 689.939636,404.092621   C691.877197,404.018494 693.965820,403.646545 695.535583,405.394531   C695.600464,407.908020 693.579773,407.036438 692.133240,407.499878   C693.107056,408.390961 695.035095,407.977875 695.164978,409.854034   C694.174744,412.403320 691.019958,410.341339 689.523804,412.590973  z"/>
<path fill="#000000" opacity="1.000000" stroke="none" d=" M492.333923,404.093719   C494.938721,404.374420 497.408051,403.356079 499.532379,405.725464   C497.236633,407.548035 495.419006,409.640656 495.675659,412.846405   C495.750610,413.782837 495.061005,414.811340 493.852112,414.806091   C492.342896,414.799561 491.857422,413.586212 491.924316,412.425110   C492.090546,409.540405 491.160065,407.369995 488.362885,406.371857   C488.862518,404.054535 490.547211,404.348236 492.333923,404.093719  z"/>
<path fill="#000000" opacity="1.000000" stroke="none" d=" M768.874023,404.283569   C772.219666,404.428131 775.472778,403.019440 778.706360,406.082794   C773.407288,407.124115 775.064575,412.025848 773.369812,414.693207   C771.613892,414.937622 770.997498,414.197235 770.877136,413.107880   C770.594971,410.553345 771.085999,407.886200 767.509766,406.776062   C766.144531,406.352295 767.268005,404.872559 768.874023,404.283569  z"/>
<path fill="#000000" opacity="1.000000" stroke="none" d=" M564.031372,405.211334   C561.447998,407.954590 559.173218,410.655212 560.276978,415.646423   C555.062256,413.335663 558.508850,406.644623 552.884766,406.029449   C556.491516,403.208954 560.139465,403.767822 564.031372,405.211334  z"/>
<path fill="#000000" opacity="1.000000" stroke="none" d=" M794.794739,406.415710   C796.470825,407.285889 797.076965,406.072723 797.896362,405.338379   C798.847717,404.485779 799.883667,404.333832 801.360413,404.975616   C800.439392,408.334503 797.420471,410.578217 797.023743,414.112915   C796.882751,415.369293 794.574402,415.373657 794.433533,414.169434   C794.017212,410.609039 790.989563,408.382446 790.039551,405.183228   C792.180908,403.830292 793.341980,405.138092 794.794739,406.415710  z"/>
<path fill="#000000" opacity="1.000000" stroke="none" d=" M449.409851,405.363922   C450.450378,408.063568 450.236115,410.523315 449.936676,412.963928   C449.812805,413.973328 449.249054,414.856323 448.046753,414.852264   C446.828461,414.848175 446.474701,413.896790 446.165375,412.930359   C444.979797,409.226746 446.309570,405.710693 449.409851,405.363922  z"/>
<path fill="#000000" opacity="1.000000" stroke="none" d=" M753.809692,404.844391   C756.023254,407.514526 755.199951,410.353455 754.930420,413.028961   C754.759888,414.721344 753.457581,415.719452 751.808655,414.284363   C749.888062,412.612823 751.031250,406.376038 753.809692,404.844391  z"/>
<path fill="#000000" opacity="1.000000" stroke="none" d=" M708.649048,414.114319   C707.668457,411.492523 707.886047,409.167419 708.190430,406.859314   C708.357910,405.588715 709.181763,404.328247 710.479065,404.918579   C713.055786,406.091187 712.079712,408.696472 712.016174,410.695251   C711.959290,412.481415 712.887817,415.718933 708.649048,414.114319  z"/>
<path fill="#000000" opacity="1.000000" stroke="none" d=" M642.709167,407.567841   C642.870850,405.937592 643.125916,404.758240 644.713074,404.885925   C645.994202,404.989014 646.263184,406.054779 646.232849,407.059265   C646.159180,409.493469 646.964294,412.051117 645.486145,414.294525   C645.260010,414.637787 644.036438,414.821259 643.778809,414.567108   C641.864136,412.678131 642.955872,410.207428 642.709167,407.567841  z"/>
</svg>